<svg xmlns="http://www.w3.org/2000/svg" version="1.1" xmlns:xlink="http://www.w3.org/1999/xlink" xmlns:svgjs="http://svgjs.com/svgjs" width="1024" height="1024"><svg version="1.1" xmlns="http://www.w3.org/2000/svg" width="1024" height="1024" viewBox="0 0 1024 1024">
<title></title>
<g id="SvgjsG1000">
</g>
<path fill="#000" d="M96.862 212.019v0c1.027 1.96 2.147 3.889 3.329 5.819l0.778 1.276c2.621 4.113 5.233 7.656 8.060 11.013l-0.126-0.153 1.058 1.245c1.494 1.711 3.112 3.423 4.667 5.041s3.609 3.329 5.383 4.885l1.058 0.933c1.836 1.556 3.734 3.112 5.663 4.449v0c2.022 1.462 4.076 2.8 6.223 4.076l0.342 0.218c2.147 1.338 4.356 2.551 6.565 3.672v0c13.191 6.896 28.812 10.941 45.378 10.941 54.99 0 99.569-44.578 99.569-99.569 0-14.521-3.109-28.317-8.697-40.757l0.253 0.63c-1.182-2.707-2.52-5.383-3.952-8.028v-0.218c-1.431-2.551-3.112-5.072-4.636-7.53l-0.28-0.436c-1.649-2.396-3.423-4.73-5.29-7.032l-0.373-0.436c-1.929-2.303-3.952-4.543-6.223-6.69-1.4-1.4-2.8-2.707-4.232-3.983l-1.213-1.151c-1.089-0.933-2.178-1.867-3.298-2.738l-1.276-0.996c-1.182-0.902-2.365-1.774-3.578-2.614l-1.027-0.716c-1.525-1.027-3.112-2.054-4.698-3.112v0c-14.69-9.021-32.481-14.365-51.519-14.365-54.99 0-99.569 44.578-99.569 99.569 0 17.112 4.317 33.217 11.921 47.283l-0.261-0.527z"></path>
<path fill="#000" d="M873.963 150.006c-92.823-92.687-220.985-150.005-362.533-150.005-79.23 0-154.266 17.958-221.259 50.026l3.090-1.332c1.556 1.431 3.112 2.894 4.605 4.387 12.724 12.69 23.316 27.51 31.198 43.88l0.415 0.957c53.583-24.103 116.151-38.145 182-38.145 125.029 0 238.234 50.624 320.236 132.492l-0.006-0.006c176.423 176.361 176.423 463.336 0 639.697s-463.336 176.361-639.697 0c-142.227-142.072-169.671-355.895-82.829-525.94-14.057-7.727-26.143-16.858-36.745-27.473l-0.002-0.002c-3.672-3.672-7.094-7.468-10.206-11.388-105.792 194.252-76.637 442.955 87.496 607.181 92.737 92.537 220.745 149.758 362.118 149.758s269.381-57.221 362.127-149.767l-0.009 0.009c199.697-199.759 199.697-524.664 0-724.33z"></path>
<path fill="#000" d="M732.607 437.573h-174.338l154.985-144.063-96.55-2.427-150.348 146.49h-30.119v-146.49h-75.983v146.49h-102.151v57.159h474.506v-57.159z"></path>
<path fill="#000" d="M732.607 603.572h-174.338l154.985 144.063-96.55 2.458-150.348-146.521h-30.119v146.521h-75.983v-146.521h-102.151v-57.159h474.506v57.159z"></path>
</svg><style>@media (prefers-color-scheme: light) { :root { filter: none; } }
@media (prefers-color-scheme: dark) { :root { filter: none; } }
</style></svg>